# xmcd
#
# Track frame offsets: 
#        150
#        19273
#        38140
#        64230
#        83220
#        105898
#        125238
#        152853
#        174768
#        194370
#
# Disc length: 2642 seconds
#
# Revision: 2
# Processed by: cddbd v1.5.2PL0 Copyright (c) Steve Scherf et al.
# Submitted via: ExactAudioCopyFreeDBPlugin 1.0
#
DISCID=7d0a500a
DTITLE=Wong Ming Tsan - Fragrance
DYEAR=1989
DGENRE=New Age
TTITLE0=Fragrance
TTITLE1=Asian Sea
TTITLE2=ドーヴィル海岸
TTITLE3=遥か地上を離れて
TTITLE4=Lost Days
TTITLE5=窓枠の空
TTITLE6=最上階への階段
TTITLE7=Indian Summer
TTITLE8=Cloudy Sky
TTITLE9=Little
EXTD=
EXTT0=
EXTT1=
EXTT2=
EXTT3=
EXTT4=
EXTT5=
EXTT6=
EXTT7=
EXTT8=
EXTT9=
PLAYORDER=
